HIERARCHY
ROOT Root
{
  OFFSET 0.0 0.0 0.0
  CHANNELS 6 Xposition Yposition Zposition Zrotation Yrotation Xrotation
  JOINT Hips
  {
    OFFSET 0.0 100.0 0.0
    CHANNELS 6 Xposition Yposition Zposition Zrotation Yrotation Xrotation
    JOINT Spine1
    {
      OFFSET 5.003913 -0.037094 -0.013727
      CHANNELS 3 Zrotation Yrotation Xrotation
      JOINT Spine2
      {
        OFFSET 7.125363 -1e-06 0.0
        CHANNELS 3 Zrotation Yrotation Xrotation
        JOINT Chest
        {
          OFFSET 7.594027 1e-06 0.0
          CHANNELS 3 Zrotation Yrotation Xrotation
          JOINT Neck1
          {
            OFFSET 26.313086 -0.460272 -0.181672
            CHANNELS 3 Zrotation Yrotation Xrotation
            JOINT Neck2
            {
              OFFSET 8.045911 0.0 0.0
              CHANNELS 3 Zrotation Yrotation Xrotation
              JOINT Head
              {
                OFFSET 6.432774 0.0 0.0
                CHANNELS 3 Zrotation Yrotation Xrotation
                JOINT HeadEnd
                {
                  OFFSET 16.169773 0.06451 0.00362
                  CHANNELS 3 Zrotation Yrotation Xrotation
                }
                JOINT Jaw
                {
                  OFFSET 0.108741 3.12938 0.002639
                  CHANNELS 3 Zrotation Yrotation Xrotation
                }
                JOINT LeftEye
                {
                  OFFSET 4.45173 8.166359 3.206392
                  CHANNELS 3 Zrotation Yrotation Xrotation
                }
                JOINT RightEye
                {
                  OFFSET 4.436895 8.135758 -3.222429
                  CHANNELS 3 Zrotation Yrotation Xrotation
                }
              }
            }
          }
          JOINT LeftShoulder
          {
            OFFSET 23.218927 5.195579 1.621656
            CHANNELS 3 Zrotation Yrotation Xrotation
            JOINT LeftArm
            {
              OFFSET 15.902118 2e-06 -2e-06
              CHANNELS 3 Zrotation Yrotation Xrotation
              JOINT LeftForeArm
              {
                OFFSET 28.739307 0.0 -1e-06
                CHANNELS 3 Zrotation Yrotation Xrotation
                JOINT LeftHand
                {
                  OFFSET 27.093981 -4e-06 0.0
                  CHANNELS 3 Zrotation Yrotation Xrotation
                  JOINT LeftHandThumb1
                  {
                    OFFSET 2.276781 3.380274 0.83384
                    CHANNELS 3 Zrotation Yrotation Xrotation
                    JOINT LeftHandThumb2
                    {
                      OFFSET 4.705309 -1e-06 -1e-06
                      CHANNELS 3 Zrotation Yrotation Xrotation
                      JOINT LeftHandThumb3
                      {
                        OFFSET 2.798515 0.0 3e-06
                        CHANNELS 3 Zrotation Yrotation Xrotation
                        JOINT LeftHandThumbEnd
                        {
                          OFFSET 3.180793 4e-06 -4e-06
                          CHANNELS 3 Zrotation Yrotation Xrotation
                        }
                      }
                    }
                  }
                  JOINT LeftHandIndex1
                  {
                    OFFSET 3.247786 2.352677 0.137192
                    CHANNELS 3 Zrotation Yrotation Xrotation
                    JOINT LeftHandIndex2
                    {
                      OFFSET 6.367095 1e-06 0.0
                      CHANNELS 3 Zrotation Yrotation Xrotation
                      JOINT LeftHandIndex3
                      {
                        OFFSET 3.662364 0.0 0.0
                        CHANNELS 3 Zrotation Yrotation Xrotation
                        JOINT LeftHandIndex4
                        {
                          OFFSET 2.329242 4e-06 -4e-06
                          CHANNELS 3 Zrotation Yrotation Xrotation
                          JOINT LeftHandIndexEnd
                          {
                            OFFSET 2.767823 1e-06 0.0
                            CHANNELS 3 Zrotation Yrotation Xrotation
                          }
                        }
                      }
                    }
                  }
                  JOINT LeftHandMiddle1
                  {
                    OFFSET 3.163612 0.945023 -0.406112
                    CHANNELS 3 Zrotation Yrotation Xrotation
                    JOINT LeftHandMiddle2
                    {
                      OFFSET 6.276789 3e-06 0.0
                      CHANNELS 3 Zrotation Yrotation Xrotation
                      JOINT LeftHandMiddle3
                      {
                        OFFSET 4.35652 -1e-06 4e-06
                        CHANNELS 3 Zrotation Yrotation Xrotation
                        JOINT LeftHandMiddle4
                        {
                          OFFSET 2.996877 0.0 8e-06
                          CHANNELS 3 Zrotation Yrotation Xrotation
                          JOINT LeftHandMiddleEnd
                          {
                            OFFSET 2.323256 3e-06 -4e-06
                            CHANNELS 3 Zrotation Yrotation Xrotation
                          }
                        }
                      }
                    }
                  }
                  JOINT LeftHandRing1
                  {
                    OFFSET 2.882606 -0.309162 0.107445
                    CHANNELS 3 Zrotation Yrotation Xrotation
                    JOINT LeftHandRing2
                    {
                      OFFSET 6.033198 0.0 4e-06
                      CHANNELS 3 Zrotation Yrotation Xrotation
                      JOINT LeftHandRing3
                      {
                        OFFSET 4.350578 3e-06 0.0
                        CHANNELS 3 Zrotation Yrotation Xrotation
                        JOINT LeftHandRing4
                        {
                          OFFSET 2.651321 2e-06 -7e-06
                          CHANNELS 3 Zrotation Yrotation Xrotation
                          JOINT LeftHandRingEnd
                          {
                            OFFSET 1.937663 1e-06 -4e-06
                            CHANNELS 3 Zrotation Yrotation Xrotation
                          }
                        }
                      }
                    }
                  }
                  JOINT LeftHandPinky1
                  {
                    OFFSET 2.865315 -1.525436 0.575687
                    CHANNELS 3 Zrotation Yrotation Xrotation
                    JOINT LeftHandPinky2
                    {
                      OFFSET 5.54936 1e-06 -8e-06
                      CHANNELS 3 Zrotation Yrotation Xrotation
                      JOINT LeftHandPinky3
                      {
                        OFFSET 3.070974 0.0 -4e-06
                        CHANNELS 3 Zrotation Yrotation Xrotation
                        JOINT LeftHandPinky4
                        {
                          OFFSET 1.549672 1e-06 0.0
                          CHANNELS 3 Zrotation Yrotation Xrotation
                          JOINT LeftHandPinkyEnd
                          {
                            OFFSET 1.952123 0.0 0.0
                            CHANNELS 3 Zrotation Yrotation Xrotation
                          }
                        }
                      }
                    }
                  }
                }
              }
            }
          }
          JOINT RightShoulder
          {
            OFFSET 23.161716 5.296122 -1.380114
            CHANNELS 3 Zrotation Yrotation Xrotation
            JOINT RightArm
            {
              OFFSET -16.027195 -2e-06 1.1e-05
              CHANNELS 3 Zrotation Yrotation Xrotation
              JOINT RightForeArm
              {
                OFFSET -28.736639 4e-06 2e-06
                CHANNELS 3 Zrotation Yrotation Xrotation
                JOINT RightHand
                {
                  OFFSET -27.133619 6e-06 0.0
                  CHANNELS 3 Zrotation Yrotation Xrotation
                  JOINT RightHandThumb1
                  {
                    OFFSET -2.274328 -3.351035 -0.83067
                    CHANNELS 3 Zrotation Yrotation Xrotation
                    JOINT RightHandThumb2
                    {
                      OFFSET -4.703594 -3e-06 2e-06
                      CHANNELS 3 Zrotation Yrotation Xrotation
                      JOINT RightHandThumb3
                      {
                        OFFSET -2.794935 -4e-06 -3e-06
                        CHANNELS 3 Zrotation Yrotation Xrotation
                        JOINT RightHandThumbEnd
                        {
                          OFFSET -3.183852 4e-06 1e-06
                          CHANNELS 3 Zrotation Yrotation Xrotation
                        }
                      }
                    }
                  }
                  JOINT RightHandIndex1
                  {
                    OFFSET -3.253496 -2.33755 -0.127667
                    CHANNELS 3 Zrotation Yrotation Xrotation
                    JOINT RightHandIndex2
                    {
                      OFFSET -6.344434 0.0 0.0
                      CHANNELS 3 Zrotation Yrotation Xrotation
                      JOINT RightHandIndex3
                      {
                        OFFSET -3.654871 0.0 -8e-06
                        CHANNELS 3 Zrotation Yrotation Xrotation
                        JOINT RightHandIndex4
                        {
                          OFFSET -2.327586 -1e-06 0.0
                          CHANNELS 3 Zrotation Yrotation Xrotation
                          JOINT RightHandIndexEnd
                          {
                            OFFSET -2.770001 3e-06 8e-06
                            CHANNELS 3 Zrotation Yrotation Xrotation
                          }
                        }
                      }
                    }
                  }
                  JOINT RightHandMiddle1
                  {
                    OFFSET -3.168223 -0.944764 0.411762
                    CHANNELS 3 Zrotation Yrotation Xrotation
                    JOINT RightHandMiddle2
                    {
                      OFFSET -6.266691 -1e-06 -4e-06
                      CHANNELS 3 Zrotation Yrotation Xrotation
                      JOINT RightHandMiddle3
                      {
                        OFFSET -4.348901 0.0 0.0
                        CHANNELS 3 Zrotation Yrotation Xrotation
                        JOINT RightHandMiddle4
                        {
                          OFFSET -3.00024 2e-06 -4e-06
                          CHANNELS 3 Zrotation Yrotation Xrotation
                          JOINT RightHandMiddleEnd
                          {
                            OFFSET -2.321477 -4e-06 -4e-06
                            CHANNELS 3 Zrotation Yrotation Xrotation
                          }
                        }
                      }
                    }
                  }
                  JOINT RightHandRing1
                  {
                    OFFSET -2.885654 0.293261 -0.119232
                    CHANNELS 3 Zrotation Yrotation Xrotation
                    JOINT RightHandRing2
                    {
                      OFFSET -6.032835 -1e-06 -4e-06
                      CHANNELS 3 Zrotation Yrotation Xrotation
                      JOINT RightHandRing3
                      {
                        OFFSET -4.33881 0.0 -4e-06
                        CHANNELS 3 Zrotation Yrotation Xrotation
                        JOINT RightHandRing4
                        {
                          OFFSET -2.654903 -4e-06 -4e-06
                          CHANNELS 3 Zrotation Yrotation Xrotation
                          JOINT RightHandRingEnd
                          {
                            OFFSET -1.935122 0.0 4e-06
                            CHANNELS 3 Zrotation Yrotation Xrotation
                          }
                        }
                      }
                    }
                  }
                  JOINT RightHandPinky1
                  {
                    OFFSET -2.866241 1.503904 -0.60527
                    CHANNELS 3 Zrotation Yrotation Xrotation
                    JOINT RightHandPinky2
                    {
                      OFFSET -5.553177 -2e-06 0.0
                      CHANNELS 3 Zrotation Yrotation Xrotation
                      JOINT RightHandPinky3
                      {
                        OFFSET -3.062664 -1e-06 -4e-06
                        CHANNELS 3 Zrotation Yrotation Xrotation
                        JOINT RightHandPinky4
                        {
                          OFFSET -1.546529 2e-06 4e-06
                          CHANNELS 3 Zrotation Yrotation Xrotation
                          JOINT RightHandPinkyEnd
                          {
                            OFFSET -1.952341 0.0 -4e-06
                            CHANNELS 3 Zrotation Yrotation Xrotation
                          }
                        }
                      }
                    }
                  }
                }
              }
            }
          }
        }
      }
    }
    JOINT LeftLeg
    {
      OFFSET -8.443107 2.567604 10.043214
      CHANNELS 3 Zrotation Yrotation Xrotation
      JOINT LeftShin
      {
        OFFSET 43.229198 1e-06 -1e-06
        CHANNELS 3 Zrotation Yrotation Xrotation
        JOINT LeftFoot
        {
          OFFSET 42.298611 1e-06 1e-06
          CHANNELS 3 Zrotation Yrotation Xrotation
          JOINT LeftToeBase
          {
            OFFSET 14.165858 1e-06 0.0
            CHANNELS 3 Zrotation Yrotation Xrotation
            JOINT LeftToeEnd
            {
              OFFSET 6.7141 -0.234461 0.0
              CHANNELS 3 Zrotation Yrotation Xrotation
            }
          }
        }
      }
    }
    JOINT RightLeg
    {
      OFFSET -8.303923 2.592729 -10.047278
      CHANNELS 3 Zrotation Yrotation Xrotation
      JOINT RightShin
      {
        OFFSET -43.369682 0.0 1e-06
        CHANNELS 3 Zrotation Yrotation Xrotation
        JOINT RightFoot
        {
          OFFSET -42.260784 4e-06 2e-06
          CHANNELS 3 Zrotation Yrotation Xrotation
          JOINT RightToeBase
          {
            OFFSET -14.222245 -2e-06 -1e-06
            CHANNELS 3 Zrotation Yrotation Xrotation
            JOINT RightToeEnd
            {
              OFFSET -6.660062 0.232574 -2e-06
              CHANNELS 3 Zrotation Yrotation Xrotation
            }
          }
        }
      }
    }
  }
}
MOTION
Frames: 4
Frame Time: 0.03333333333333333
0.0 0.0 0.0 0.0 -0.0 0.0 3.238936 100.266373 -1.341704 88.189407 7.259542 93.35955 -4.551843 -2.894368 -0.07887 -12.57819 -1.733854 -1.415326 26.239277 1.138053 -3.972245 27.420273 7.253216 2.580712 -2.767304 -0.411009 -2.059172 -29.642389 -1.74878 -1.735799 6e-06 0.0 0.0 0.044158 0.006753 -0.088193 -0.076033 0.034426 -0.083407 -0.044307 -0.02421 -0.088485 -52.103214 -77.971703 59.447937 59.190216 -30.405722 -40.86219 82.034706 -0.580121 -0.304394 1.829606 15.742764 -39.769825 17.636631 -26.322739 52.411213 -19.466656 -14.395604 29.410395 2e-06 -8.774824 -3e-06 15.799588 -17.766304 5.951035 -0.609778 -1.795654 -3.889328 -4.807091 -11.046811 -2.93785 0.0 -20.976013 1e-06 -5.019974 -25.03356 -4.031884 6e-06 -1e-06 0.0 -10.634537 -5.686973 -3.565588 10.573276 -17.922949 -3.1139 1e-06 -13.821205 2e-06 -0.501783 -31.181498 -4.027015 -10.997395 -58.696945 6.3564 -13.982719 -7.1502 -2.875042 13.772731 -8.401489 -3.21824 0.347729 -34.211555 0.771657 -0.963032 -17.73337 2.621019 -1e-06 -0.0 1e-06 -17.346424 -20.095219 -4.201779 21.757566 -1.638373 3.866428 0.0 -6.338825 1e-06 -1.697594 -22.591742 -6.194006 1e-06 -5e-06 -2e-06 59.374615 -78.42186 133.153473 41.828609 -39.958847 -36.424736 115.703232 -1.997048 0.867292 -20.415958 23.81743 -38.532803 22.182116 -20.375885 49.933315 -16.701815 -16.743528 28.476532 -2e-06 -12.690603 -1e-06 15.745789 -17.361874 2.547957 -0.105916 -1.513857 -4.275881 -5.039043 -5.612873 -2.953557 5e-06 -11.020525 -3e-06 -6.1113 -15.895334 -3.840472 0.0 1e-06 0.0 -10.28337 -5.68029 -4.341838 11.028294 -11.302404 -2.372634 -1.384269 -14.238581 -6.320122 -0.625434 -26.924191 -3.827604 -4.589195 -49.174301 -3.478031 -13.708521 -7.363476 -3.720939 18.14115 -14.052739 -3.242675 5e-06 -18.787271 -4e-06 -0.42971 -8.456042 2.555503 1e-06 -0.0 -1e-06 -15.923536 -20.094484 -5.473585 30.419214 -7.190825 1.735926 1e-06 -8.162925 -2e-06 -1.8619 -22.861471 -6.167946 -1e-06 -0.0 1e-06 -174.432617 -3.068809 -11.629289 12.235776 -0.06222 0.051338 -79.806816 1.43181 -3.320486 -4.695911 1.414343 2.049368 -0.999999 0.0 0.0 9.006145 -2.129927 -3.51139 5.828261 0.043057 0.098235 -73.099327 -4.922876 -6.729512 -4.657174 0.717432 1.699783 -1.000003 0.0 -0.0 
0.0 0.0 0.0 0.0 -0.0 0.0 3.782881 100.199196 -1.248585 87.677765 7.492046 90.366783 -4.671323 -2.965921 -0.109074 -12.624515 -1.902421 -1.89904 26.140682 1.638683 -4.631164 28.431913 7.05208 2.60907 -2.763269 -0.404678 -0.390717 -29.169827 -2.090256 0.813308 6e-06 0.0 0.0 0.046058 0.009902 -0.062459 -0.064931 0.033847 -0.055115 -0.03199 -0.017005 -0.061925 -45.885529 -78.366371 53.257164 56.146954 -28.668653 -42.323711 76.275597 -0.936845 -0.213134 0.559927 16.791632 -38.753826 17.636629 -26.322737 52.411194 -19.466661 -14.395598 29.410389 -1e-06 -8.774824 -2e-06 15.722679 -17.768761 5.871393 -0.609777 -1.795653 -3.889327 -4.807087 -11.046809 -2.93785 5e-06 -20.976019 1e-06 -5.019969 -25.033558 -4.031881 5e-06 2e-06 0.0 -10.634533 -5.686969 -3.565587 10.573275 -17.922949 -3.113899 1e-06 -13.821211 3e-06 -0.501779 -31.181505 -4.027011 -11.00793 -58.841515 6.362977 -13.982714 -7.150196 -2.875041 13.772732 -8.401493 -3.218241 0.347735 -34.211552 0.771655 -0.963029 -17.73337 2.62102 0.0 1e-06 1e-06 -17.346416 -20.095213 -4.20178 21.757557 -1.638376 3.866427 2e-06 -6.338825 -1e-06 -1.697591 -22.591743 -6.194004 -0.0 -7e-06 -3e-06 62.794132 -77.545006 129.337448 40.064304 -38.281998 -39.378738 116.907555 -1.545735 0.531803 -20.446127 22.715387 -35.918732 22.182108 -20.375883 49.933308 -16.701809 -16.743528 28.476524 -2e-06 -12.690597 -1e-06 15.964177 -17.28726 2.394475 -0.10592 -1.513856 -4.27588 -5.039043 -5.612872 -2.953556 3e-06 -11.02052 -3e-06 -6.111297 -15.89533 -3.840472 0.0 0.0 0.0 -10.283369 -5.680289 -4.341837 11.028288 -11.302402 -2.372632 -1.384271 -14.238579 -6.320121 -0.625433 -26.924183 -3.827605 -4.443582 -48.802631 -3.646565 -13.708522 -7.363478 -3.720938 18.141146 -14.052734 -3.242674 9e-06 -18.787266 -4e-06 -0.429713 -8.45604 2.555502 2e-06 0.0 -0.0 -15.923532 -20.094479 -5.473585 30.419207 -7.190821 1.735927 3e-06 -8.162922 -1e-06 -1.861904 -22.86146 -6.167943 -1e-06 -2e-06 -1e-06 -173.761154 -2.935778 -13.176429 12.436672 -0.065272 -0.002005 -80.373886 0.015431 -3.479626 -4.746029 1.403203 2.031843 -0.999998 -0.0 -0.0 8.720837 -2.377507 -2.049123 6.131028 0.041077 0.131981 -73.097748 -3.282442 -6.693829 -4.766723 0.75567 1.694018 -1.000003 0.0 0.0 
0.0 0.0 0.0 0.0 -0.0 0.0 4.223856 100.15036 -1.052859 87.187965 7.615287 87.715286 -4.80412 -3.022846 -0.190608 -12.680735 -2.067752 -2.387954 25.932123 2.03389 -5.315041 29.445568 6.858593 2.624353 -2.753458 -0.412151 1.166826 -28.5154 -2.45774 3.267392 6e-06 -0.0 1e-06 0.031461 0.010564 -0.032719 -0.056787 0.031242 -0.020057 -0.032357 -0.012058 -0.034863 -39.262131 -78.522064 46.660564 52.607471 -27.663174 -43.869171 69.732681 -1.273026 -0.03241 -1.814512 18.031174 -39.125401 17.636621 -26.322729 52.411182 -19.46666 -14.395597 29.410385 -2e-06 -8.774821 -2e-06 15.580853 -17.752821 5.779912 -0.609776 -1.795654 -3.889327 -4.807088 -11.046811 -2.93785 5e-06 -20.976015 0.0 -5.019969 -25.033556 -4.031881 6e-06 2e-06 0.0 -10.634532 -5.686969 -3.565587 10.573272 -17.922947 -3.1139 2e-06 -13.821206 2e-06 -0.501779 -31.181505 -4.027013 -11.046609 -58.856274 6.436735 -13.982712 -7.150197 -2.875041 13.772727 -8.401491 -3.218241 0.347735 -34.211555 0.771654 -0.963029 -17.733366 2.62102 0.0 1e-06 -0.0 -17.346416 -20.095213 -4.201781 21.757555 -1.638375 3.866427 2e-06 -6.338823 1e-06 -1.697588 -22.591742 -6.194005 -0.0 -3e-06 -3e-06 67.0812 -76.660393 124.491096 38.160542 -37.000313 -42.922695 117.454338 -1.056796 0.414134 -20.597797 22.31838 -30.958954 22.182112 -20.375887 49.933315 -16.701811 -16.743528 28.476528 -3e-06 -12.690601 -0.0 16.013084 -17.028477 2.218294 -0.105918 -1.513857 -4.275881 -5.039045 -5.612873 -2.953554 4e-06 -11.02052 -2e-06 -6.111296 -15.89533 -3.840471 -0.0 -0.0 -0.0 -10.283371 -5.68029 -4.341838 11.028294 -11.302402 -2.372634 -1.38427 -14.23858 -6.320121 -0.625437 -26.924187 -3.827606 -4.204878 -48.22694 -3.847885 -13.708527 -7.363476 -3.720938 18.14115 -14.052735 -3.242675 4e-06 -18.78727 -1e-06 -0.429712 -8.456041 2.555503 3e-06 1e-06 0.0 -15.923539 -20.094486 -5.473583 30.419214 -7.190824 1.735927 1e-06 -8.162925 -2e-06 -1.861901 -22.861467 -6.167943 -2e-06 -5e-06 0.0 -173.055496 -2.808461 -14.448847 12.345305 -0.079734 -0.035204 -80.79953 -1.26766 -3.67209 -4.850259 1.385981 2.018121 -0.999999 -0.0 -0.0 8.493277 -2.504935 -0.706968 6.288094 0.040728 0.157895 -73.036545 -1.925999 -6.48716 -4.943486 0.793189 1.683079 -1.000001 0.0 -0.0 
0.0 0.0 0.0 0.0 -0.0 0.0 4.516558 100.133667 -0.767922 86.749237 7.605942 85.591133 -4.902675 -3.069669 -0.312982 -12.726723 -2.243538 -2.919981 25.518681 2.306395 -5.97994 30.33676 6.71496 2.614523 -2.744555 -0.415736 2.585049 -27.797049 -2.86266 5.442458 6e-06 -0.0 0.0 0.011642 0.00823 -0.011682 -0.034999 0.032732 0.006343 -0.016902 -0.017404 -0.018119 -32.486206 -78.401466 39.981819 48.849087 -27.557287 -45.502426 63.313961 -1.471877 0.080105 -4.830265 19.339844 -40.670551 17.636631 -26.322739 52.411213 -19.466663 -14.395597 29.410395 -0.0 -8.774822 -2e-06 15.325562 -17.645559 5.711745 -0.609776 -1.795654 -3.889328 -4.80709 -11.046813 -2.937851 3e-06 -20.976021 -0.0 -5.019973 -25.03356 -4.031882 5e-06 1e-06 -0.0 -10.634537 -5.686973 -3.565589 10.573275 -17.922955 -3.1139 1e-06 -13.821213 2e-06 -0.50178 -31.181519 -4.027017 -11.023179 -58.735455 6.460897 -13.982714 -7.150199 -2.875043 13.772731 -8.401493 -3.218242 0.347732 -34.211559 0.771654 -0.963029 -17.733372 2.621021 0.0 1e-06 0.0 -17.346424 -20.095224 -4.201782 21.757561 -1.638374 3.866429 1e-06 -6.338826 1e-06 -1.697592 -22.591751 -6.194007 0.0 -6e-06 -2e-06 72.094597 -75.731293 118.780418 35.742508 -36.20034 -46.703136 117.681595 -0.912045 0.673006 -21.290316 22.58477 -24.397966 22.182119 -20.375895 49.933323 -16.701818 -16.74353 28.476532 -2e-06 -12.690606 -1e-06 15.679775 -16.725752 2.214979 -0.105916 -1.513857 -4.275882 -5.039041 -5.612869 -2.953557 2e-06 -11.020528 -2e-06 -6.111297 -15.895334 -3.840471 1e-06 0.0 -0.0 -10.283372 -5.680288 -4.341839 11.028296 -11.302405 -2.372632 -1.384266 -14.238581 -6.320122 -0.625435 -26.924191 -3.827605 -3.995916 -47.894165 -3.911475 -13.708527 -7.363476 -3.720939 18.141157 -14.05274 -3.242676 3e-06 -18.78727 1e-06 -0.429709 -8.456041 2.555503 -1e-06 -0.0 -1e-06 -15.923534 -20.094486 -5.473587 30.419222 -7.190827 1.735925 0.0 -8.162927 2e-06 -1.8619 -22.861469 -6.167942 -3e-06 -3e-06 -1e-06 -172.282059 -2.64453 -15.29584 11.904886 -0.089588 -0.044602 -81.058426 -2.422107 -3.907729 -4.925367 1.362686 2.01576 -0.999999 -0.0 -0.0 8.399385 -2.481025 0.537034 6.16779 0.039002 0.149748 -72.842339 -1.119814 -6.130157 -5.088276 0.80799 1.671597 -1.000002 0.0 -0.0 
